<svg width="35" height="26" viewBox="0 0 35 26" fill="none" xmlns="http://www.w3.org/2000/svg">
<path id="Vector" d="M29.0328 2.13336C26.8465 1.14738 24.503 0.418613 22.0523 0.00421566C22.0305 2.58382e-05 22.0079 0.00272591 21.9877 0.0119425C21.9675 0.0211591 21.9506 0.0364362 21.9395 0.0556581C21.6394 0.582943 21.305 1.27027 21.0707 1.81327C18.4715 1.42494 15.8291 1.42494 13.23 1.81327C12.9689 1.21148 12.6746 0.624703 12.3483 0.0556581C12.3372 0.0361996 12.3205 0.0205769 12.3003 0.0108748C12.2802 0.00117269 12.2575 -0.00214746 12.2354 0.00135761C9.78618 0.415755 7.44269 1.14452 5.25496 2.13193C5.23614 2.13983 5.22018 2.15329 5.20923 2.17051C0.762321 8.70799 -0.456579 15.084 0.142154 21.38C0.14382 21.3954 0.148606 21.4103 0.156221 21.4238C0.163837 21.4373 0.174122 21.4492 0.186451 21.4586C2.782 23.3483 5.67698 24.7878 8.75019 25.7169C8.77161 25.7235 8.79453 25.7234 8.81594 25.7168C8.83735 25.7102 8.85627 25.6973 8.87022 25.6797C9.53153 24.7953 10.1176 23.857 10.6221 22.8747C10.6291 22.8612 10.6332 22.8465 10.634 22.8313C10.6348 22.8162 10.6323 22.8011 10.6267 22.787C10.6212 22.7729 10.6127 22.7602 10.6018 22.7497C10.5909 22.7391 10.5778 22.7311 10.5635 22.7261C9.64043 22.3784 8.74602 21.9589 7.88853 21.4714C7.87312 21.4626 7.86014 21.4502 7.85074 21.4351C7.84135 21.4201 7.83584 21.4029 7.8347 21.3852C7.83357 21.3675 7.83685 21.3498 7.84425 21.3337C7.85165 21.3175 7.86293 21.3035 7.8771 21.2928C8.05714 21.1599 8.23719 21.0213 8.40867 20.8827C8.4241 20.8702 8.44269 20.8623 8.46237 20.8598C8.48205 20.8573 8.50205 20.8602 8.52013 20.8684C14.1316 23.3891 20.209 23.3891 25.7548 20.8684C25.7729 20.8598 25.7931 20.8564 25.8131 20.8587C25.833 20.8609 25.8519 20.8688 25.8677 20.8813C26.0391 21.0213 26.2178 21.1599 26.3992 21.2928C26.4135 21.3033 26.425 21.3171 26.4326 21.3331C26.4403 21.3491 26.4438 21.3667 26.443 21.3844C26.4421 21.4021 26.4369 21.4193 26.4278 21.4345C26.4186 21.4497 26.4059 21.4624 26.3907 21.4714C25.5361 21.963 24.6473 22.3788 23.7142 22.7246C23.6999 22.7298 23.6868 22.738 23.6759 22.7487C23.665 22.7593 23.6565 22.7722 23.651 22.7864C23.6454 22.8006 23.643 22.8158 23.6438 22.831C23.6446 22.8463 23.6486 22.8611 23.6556 22.8747C24.1701 23.8564 24.7588 24.7909 25.4061 25.6783C25.4196 25.6965 25.4383 25.7101 25.4598 25.7173C25.4813 25.7244 25.5044 25.7248 25.5261 25.7183C28.6046 24.7918 31.5043 23.3516 34.1027 21.4586C34.1154 21.4497 34.1261 21.4382 34.1339 21.4249C34.1418 21.4116 34.1468 21.3968 34.1485 21.3814C34.8629 14.1023 32.951 7.77774 29.0771 2.17337C29.0676 2.15516 29.0519 2.14096 29.0328 2.13336ZM11.4609 17.5461C9.77189 17.5461 8.37866 16.0185 8.37866 14.1452C8.37866 12.2704 9.74474 10.7443 11.4609 10.7443C13.19 10.7443 14.5703 12.2832 14.5432 14.1452C14.5432 16.02 13.1771 17.5461 11.4609 17.5461ZM22.8568 17.5461C21.1664 17.5461 19.7746 16.0185 19.7746 14.1452C19.7746 12.2704 21.1392 10.7443 22.8568 10.7443C24.5859 10.7443 25.9663 12.2832 25.9391 14.1452C25.9391 16.02 24.5873 17.5461 22.8568 17.5461Z" fill="#BA1B2A"/>
</svg>
