<svg width="32" height="27" viewBox="0 0 32 27" fill="none" xmlns="http://www.w3.org/2000/svg">
<path id="Vector" d="M31.6627 3.77846C30.4984 4.28074 29.2312 4.64223 27.9261 4.78302C29.2811 3.97799 30.2959 2.70616 30.7799 1.20617C29.5084 1.9626 28.1154 2.49301 26.6628 2.7739C26.0556 2.12484 25.3213 1.60777 24.5056 1.25491C23.6899 0.902044 22.8103 0.720953 21.9215 0.722916C18.3257 0.722916 15.4337 3.63767 15.4337 7.21452C15.4337 7.7168 15.4946 8.21908 15.5936 8.70234C10.2092 8.42076 5.40713 5.84847 2.2146 1.91013C1.63289 2.90371 1.32805 4.03503 1.33181 5.18637C1.33181 7.43903 2.47716 9.42532 4.22373 10.5935C3.19445 10.553 2.18927 10.2701 1.28995 9.76779V9.84769C1.28995 13.0022 3.51977 15.6163 6.49161 16.2175C5.93361 16.3625 5.3596 16.4366 4.78309 16.4382C4.36071 16.4382 3.96117 16.3964 3.55783 16.3393C4.37974 18.9116 6.77319 20.7799 9.62325 20.8408C7.39343 22.5874 4.60044 23.6148 1.56773 23.6148C1.02359 23.6148 0.521307 23.5957 0 23.5349C2.8767 25.3804 6.28993 26.4458 9.96572 26.4458C21.8987 26.4458 28.4284 16.56 28.4284 7.97936C28.4284 7.69778 28.4284 7.4162 28.4093 7.13461C29.6726 6.20996 30.7799 5.06461 31.6627 3.77846Z" fill="#BA1B2A"/>
</svg>
