<svg width="26" height="27" viewBox="0 0 26 27" fill="none" xmlns="http://www.w3.org/2000/svg">
<path id="Vector" d="M12.8582 9.01828C10.4966 9.01828 8.56926 10.9456 8.56926 13.3073C8.56926 15.6689 10.4966 17.5962 12.8582 17.5962C15.2199 17.5962 17.1472 15.6689 17.1472 13.3073C17.1472 10.9456 15.2199 9.01828 12.8582 9.01828ZM25.722 13.3073C25.722 11.5312 25.738 9.77118 25.6383 7.99832C25.5386 5.93909 25.0688 4.11153 23.563 2.60573C22.054 1.0967 20.2296 0.630157 18.1704 0.530414C16.3943 0.43067 14.6343 0.446758 12.8615 0.446758C11.0854 0.446758 9.32538 0.43067 7.55252 0.530414C5.49329 0.630157 3.66573 1.09992 2.15992 2.60573C0.6509 4.11475 0.184357 5.93909 0.084613 7.99832C-0.0151307 9.7744 0.000957038 11.5344 0.000957038 13.3073C0.000957038 15.0801 -0.0151307 16.8433 0.084613 18.6162C0.184357 20.6754 0.654117 22.503 2.15992 24.0088C3.66895 25.5178 5.49329 25.9844 7.55252 26.0841C9.3286 26.1838 11.0886 26.1678 12.8615 26.1678C14.6375 26.1678 16.3975 26.1838 18.1704 26.0841C20.2296 25.9844 22.0572 25.5146 23.563 24.0088C25.072 22.4998 25.5386 20.6754 25.6383 18.6162C25.7413 16.8433 25.722 15.0833 25.722 13.3073ZM12.8582 19.9064C9.20633 19.9064 6.25907 16.9592 6.25907 13.3073C6.25907 9.65535 9.20633 6.70809 12.8582 6.70809C16.5101 6.70809 19.4574 9.65535 19.4574 13.3073C19.4574 16.9592 16.5101 19.9064 12.8582 19.9064ZM19.7277 7.97901C18.875 7.97901 18.1865 7.29046 18.1865 6.43781C18.1865 5.58517 18.875 4.89661 19.7277 4.89661C20.5803 4.89661 21.2689 5.58517 21.2689 6.43781C21.2691 6.64028 21.2294 6.8408 21.1521 7.0279C21.0747 7.21501 20.9612 7.38501 20.818 7.52817C20.6749 7.67134 20.5049 7.78485 20.3178 7.86221C20.1307 7.93958 19.9301 7.97927 19.7277 7.97901Z" fill="#BA1B2A"/>
</svg>
